<?xml version="1.0" encoding="UTF-8" standalone="no"?>
<!DOCTYPE svg PUBLIC "-//W3C//DTD SVG 1.1//EN"
 "http://www.w3.org/Graphics/SVG/1.1/DTD/svg11.dtd">
<!-- Generated by graphviz version 2.50.0 (20220708.1628)
 -->
<!-- Title: snakemake_dag Pages: 1 -->
<svg width="918pt" height="332pt"
 viewBox="0.00 0.00 917.78 332.00" xmlns="http://www.w3.org/2000/svg" xmlns:xlink="http://www.w3.org/1999/xlink">
<g id="graph0" class="graph" transform="scale(1 1) rotate(0) translate(4 328)">
<title>snakemake_dag</title>
<polygon fill="white" stroke="transparent" points="-4,4 -4,-328 913.78,-328 913.78,4 -4,4"/>
<!-- 0 -->
<g id="node1" class="node">
<title>0</title>
<path fill="none" stroke="#56a9d8" stroke-width="2" d="M531.5,-36C531.5,-36 465.5,-36 465.5,-36 459.5,-36 453.5,-30 453.5,-24 453.5,-24 453.5,-12 453.5,-12 453.5,-6 459.5,0 465.5,0 465.5,0 531.5,0 531.5,0 537.5,0 543.5,-6 543.5,-12 543.5,-12 543.5,-24 543.5,-24 543.5,-30 537.5,-36 531.5,-36"/>
<text text-anchor="middle" x="498.5" y="-15.5" font-family="sans" font-size="10.00">make_summary</text>
</g>
<!-- 1 -->
<g id="node2" class="node">
<title>1</title>
<path fill="none" stroke="#59d856" stroke-width="2" d="M260.5,-180C260.5,-180 220.5,-180 220.5,-180 214.5,-180 208.5,-174 208.5,-168 208.5,-168 208.5,-156 208.5,-156 208.5,-150 214.5,-144 220.5,-144 220.5,-144 260.5,-144 260.5,-144 266.5,-144 272.5,-150 272.5,-156 272.5,-156 272.5,-168 272.5,-168 272.5,-174 266.5,-180 260.5,-180"/>
<text text-anchor="middle" x="240.5" y="-159.5" font-family="sans" font-size="10.00">make_dag</text>
</g>
<!-- 1&#45;&gt;0 -->
<g id="edge1" class="edge">
<title>1&#45;&gt;0</title>
<path fill="none" stroke="grey" stroke-width="2" d="M250.07,-143.93C262.23,-123.78 285.11,-90.66 313.5,-72 352.59,-46.31 404.24,-32.87 443.04,-25.96"/>
<polygon fill="grey" stroke="grey" stroke-width="2" points="443.83,-29.38 453.11,-24.26 442.67,-22.48 443.83,-29.38"/>
</g>
<!-- 2 -->
<g id="node3" class="node">
<title>2</title>
<path fill="none" stroke="#80d856" stroke-width="2" d="M249.5,-108C249.5,-108 177.5,-108 177.5,-108 171.5,-108 165.5,-102 165.5,-96 165.5,-96 165.5,-84 165.5,-84 165.5,-78 171.5,-72 177.5,-72 177.5,-72 249.5,-72 249.5,-72 255.5,-72 261.5,-78 261.5,-84 261.5,-84 261.5,-96 261.5,-96 261.5,-102 255.5,-108 249.5,-108"/>
<text text-anchor="middle" x="213.5" y="-87.5" font-family="sans" font-size="10.00">save_pinned_env</text>
</g>
<!-- 1&#45;&gt;2 -->
<g id="edge12" class="edge">
<title>1&#45;&gt;2</title>
<path fill="none" stroke="grey" stroke-width="2" d="M233.83,-143.7C230.79,-135.81 227.12,-126.3 223.74,-117.55"/>
<polygon fill="grey" stroke="grey" stroke-width="2" points="226.96,-116.17 220.1,-108.1 220.43,-118.69 226.96,-116.17"/>
</g>
<!-- 2&#45;&gt;0 -->
<g id="edge2" class="edge">
<title>2&#45;&gt;0</title>
<path fill="none" stroke="grey" stroke-width="2" d="M261.52,-75.66C266.24,-74.4 270.96,-73.16 275.5,-72 332.49,-57.42 398.02,-42.01 443.22,-31.58"/>
<polygon fill="grey" stroke="grey" stroke-width="2" points="444.15,-34.96 453.12,-29.31 442.59,-28.14 444.15,-34.96"/>
</g>
<!-- 3 -->
<g id="node4" class="node">
<title>3</title>
<path fill="none" stroke="#56d8d8" stroke-width="2" d="M145,-252C145,-252 12,-252 12,-252 6,-252 0,-246 0,-240 0,-240 0,-228 0,-228 0,-222 6,-216 12,-216 12,-216 145,-216 145,-216 151,-216 157,-222 157,-228 157,-228 157,-240 157,-240 157,-246 151,-252 145,-252"/>
<text text-anchor="middle" x="78.5" y="-231.5" font-family="sans" font-size="10.00">get_mut_bind_monomer_expr</text>
</g>
<!-- 3&#45;&gt;0 -->
<g id="edge3" class="edge">
<title>3&#45;&gt;0</title>
<path fill="none" stroke="grey" stroke-width="2" d="M157.13,-217.43C204.85,-207.04 260.49,-192.95 281.5,-180 335.92,-146.46 324.83,-109.64 376.5,-72 396.74,-57.25 421.73,-45.49 443.81,-36.83"/>
<polygon fill="grey" stroke="grey" stroke-width="2" points="445.29,-40.01 453.39,-33.19 442.8,-33.47 445.29,-40.01"/>
</g>
<!-- 10 -->
<g id="node11" class="node">
<title>10</title>
<path fill="none" stroke="#56d8a9" stroke-width="2" d="M557,-180C557,-180 494,-180 494,-180 488,-180 482,-174 482,-168 482,-168 482,-156 482,-156 482,-150 488,-144 494,-144 494,-144 557,-144 557,-144 563,-144 569,-150 569,-156 569,-156 569,-168 569,-168 569,-174 563,-180 557,-180"/>
<text text-anchor="middle" x="525.5" y="-159.5" font-family="sans" font-size="10.00">collapse_scores</text>
</g>
<!-- 3&#45;&gt;10 -->
<g id="edge22" class="edge">
<title>3&#45;&gt;10</title>
<path fill="none" stroke="grey" stroke-width="2" d="M157.15,-217.63C160.31,-217.07 163.43,-216.52 166.5,-216 274.53,-197.6 401.5,-179.74 471.79,-170.17"/>
<polygon fill="grey" stroke="grey" stroke-width="2" points="472.3,-173.64 481.74,-168.82 471.36,-166.7 472.3,-173.64"/>
</g>
<!-- 4 -->
<g id="node5" class="node">
<title>4</title>
<path fill="none" stroke="#d88556" stroke-width="2" d="M301.5,-252C301.5,-252 187.5,-252 187.5,-252 181.5,-252 175.5,-246 175.5,-240 175.5,-240 175.5,-228 175.5,-228 175.5,-222 181.5,-216 187.5,-216 187.5,-216 301.5,-216 301.5,-216 307.5,-216 313.5,-222 313.5,-228 313.5,-228 313.5,-240 313.5,-240 313.5,-246 307.5,-252 301.5,-252"/>
<text text-anchor="middle" x="244.5" y="-231.5" font-family="sans" font-size="10.00">get_mut_bind_dimer_expr</text>
</g>
<!-- 4&#45;&gt;0 -->
<g id="edge4" class="edge">
<title>4&#45;&gt;0</title>
<path fill="none" stroke="grey" stroke-width="2" d="M287.42,-215.78C305.6,-207 326.09,-194.98 341.5,-180 381.34,-141.26 364.92,-111 404.5,-72 417.11,-59.58 433.21,-49.11 448.51,-40.84"/>
<polygon fill="grey" stroke="grey" stroke-width="2" points="450.13,-43.94 457.39,-36.23 446.9,-37.73 450.13,-43.94"/>
</g>
<!-- 4&#45;&gt;10 -->
<g id="edge21" class="edge">
<title>4&#45;&gt;10</title>
<path fill="none" stroke="grey" stroke-width="2" d="M312.88,-215.97C361.82,-203.78 426.76,-187.6 471.95,-176.34"/>
<polygon fill="grey" stroke="grey" stroke-width="2" points="472.98,-179.69 481.84,-173.88 471.29,-172.9 472.98,-179.69"/>
</g>
<!-- 5 -->
<g id="node6" class="node">
<title>5</title>
<path fill="none" stroke="#56d882" stroke-width="2" d="M719.5,-324C719.5,-324 659.5,-324 659.5,-324 653.5,-324 647.5,-318 647.5,-312 647.5,-312 647.5,-300 647.5,-300 647.5,-294 653.5,-288 659.5,-288 659.5,-288 719.5,-288 719.5,-288 725.5,-288 731.5,-294 731.5,-300 731.5,-300 731.5,-312 731.5,-312 731.5,-318 725.5,-324 719.5,-324"/>
<text text-anchor="middle" x="689.5" y="-303.5" font-family="sans" font-size="10.00">count_variants</text>
</g>
<!-- 5&#45;&gt;0 -->
<g id="edge5" class="edge">
<title>5&#45;&gt;0</title>
<path fill="none" stroke="grey" stroke-width="2" d="M731.56,-303.72C803.76,-299.73 940.16,-283.32 903.5,-216 833.12,-86.77 647.35,-41.08 553.87,-25.94"/>
<polygon fill="grey" stroke="grey" stroke-width="2" points="554.18,-22.45 543.76,-24.37 553.1,-29.36 554.18,-22.45"/>
</g>
<!-- 6 -->
<g id="node7" class="node">
<title>6</title>
<path fill="none" stroke="#d6d856" stroke-width="2" d="M882,-252C882,-252 779,-252 779,-252 773,-252 767,-246 767,-240 767,-240 767,-228 767,-228 767,-222 773,-216 779,-216 779,-216 882,-216 882,-216 888,-216 894,-222 894,-228 894,-228 894,-240 894,-240 894,-246 888,-252 882,-252"/>
<text text-anchor="middle" x="830.5" y="-231.5" font-family="sans" font-size="10.00">fit_deer_ACE2_titrations</text>
</g>
<!-- 5&#45;&gt;6 -->
<g id="edge13" class="edge">
<title>5&#45;&gt;6</title>
<path fill="none" stroke="grey" stroke-width="2" d="M723.99,-287.88C742.94,-278.47 766.63,-266.71 786.86,-256.67"/>
<polygon fill="grey" stroke="grey" stroke-width="2" points="788.47,-259.77 795.87,-252.19 785.36,-253.5 788.47,-259.77"/>
</g>
<!-- 7 -->
<g id="node8" class="node">
<title>7</title>
<path fill="none" stroke="#5682d8" stroke-width="2" d="M463,-252C463,-252 344,-252 344,-252 338,-252 332,-246 332,-240 332,-240 332,-228 332,-228 332,-222 338,-216 344,-216 344,-216 463,-216 463,-216 469,-216 475,-222 475,-228 475,-228 475,-240 475,-240 475,-246 469,-252 463,-252"/>
<text text-anchor="middle" x="403.5" y="-231.5" font-family="sans" font-size="10.00">fit_hamster_ACE2_titrations</text>
</g>
<!-- 5&#45;&gt;7 -->
<g id="edge14" class="edge">
<title>5&#45;&gt;7</title>
<path fill="none" stroke="grey" stroke-width="2" d="M647.3,-294.67C604.15,-284.11 536.08,-267.45 482.82,-254.41"/>
<polygon fill="grey" stroke="grey" stroke-width="2" points="483.6,-251 473.06,-252.02 481.94,-257.8 483.6,-251"/>
</g>
<!-- 8 -->
<g id="node9" class="node">
<title>8</title>
<path fill="none" stroke="#afd856" stroke-width="2" d="M600,-252C600,-252 505,-252 505,-252 499,-252 493,-246 493,-240 493,-240 493,-228 493,-228 493,-222 499,-216 505,-216 505,-216 600,-216 600,-216 606,-216 612,-222 612,-228 612,-228 612,-240 612,-240 612,-246 606,-252 600,-252"/>
<text text-anchor="middle" x="552.5" y="-231.5" font-family="sans" font-size="10.00">fit_bat_ACE2_titrations</text>
</g>
<!-- 5&#45;&gt;8 -->
<g id="edge15" class="edge">
<title>5&#45;&gt;8</title>
<path fill="none" stroke="grey" stroke-width="2" d="M655.99,-287.88C637.66,-278.51 614.76,-266.81 595.17,-256.8"/>
<polygon fill="grey" stroke="grey" stroke-width="2" points="596.64,-253.62 586.14,-252.19 593.46,-259.86 596.64,-253.62"/>
</g>
<!-- 9 -->
<g id="node10" class="node">
<title>9</title>
<path fill="none" stroke="#d85656" stroke-width="2" d="M736.5,-252C736.5,-252 642.5,-252 642.5,-252 636.5,-252 630.5,-246 630.5,-240 630.5,-240 630.5,-228 630.5,-228 630.5,-222 636.5,-216 642.5,-216 642.5,-216 736.5,-216 736.5,-216 742.5,-216 748.5,-222 748.5,-228 748.5,-228 748.5,-240 748.5,-240 748.5,-246 742.5,-252 736.5,-252"/>
<text text-anchor="middle" x="689.5" y="-231.5" font-family="sans" font-size="10.00">fit_cat_ACE2_titrations</text>
</g>
<!-- 5&#45;&gt;9 -->
<g id="edge16" class="edge">
<title>5&#45;&gt;9</title>
<path fill="none" stroke="grey" stroke-width="2" d="M689.5,-287.7C689.5,-279.98 689.5,-270.71 689.5,-262.11"/>
<polygon fill="grey" stroke="grey" stroke-width="2" points="693,-262.1 689.5,-252.1 686,-262.1 693,-262.1"/>
</g>
<!-- 6&#45;&gt;0 -->
<g id="edge6" class="edge">
<title>6&#45;&gt;0</title>
<path fill="none" stroke="grey" stroke-width="2" d="M814.13,-215.74C782.86,-183.61 711.35,-114.09 639.5,-72 612.67,-56.28 580.35,-43.73 553.42,-34.8"/>
<polygon fill="grey" stroke="grey" stroke-width="2" points="554.36,-31.42 543.77,-31.67 552.2,-38.08 554.36,-31.42"/>
</g>
<!-- 6&#45;&gt;10 -->
<g id="edge17" class="edge">
<title>6&#45;&gt;10</title>
<path fill="none" stroke="grey" stroke-width="2" d="M766.8,-218.15C763.66,-217.42 760.54,-216.7 757.5,-216 696.36,-201.9 626.12,-185.88 579.09,-175.18"/>
<polygon fill="grey" stroke="grey" stroke-width="2" points="579.65,-171.71 569.13,-172.91 578.1,-178.54 579.65,-171.71"/>
</g>
<!-- 7&#45;&gt;0 -->
<g id="edge7" class="edge">
<title>7&#45;&gt;0</title>
<path fill="none" stroke="grey" stroke-width="2" d="M401.16,-215.56C397.87,-184.34 395.02,-117.88 422.5,-72 429.88,-59.67 441.37,-49.5 453.19,-41.47"/>
<polygon fill="grey" stroke="grey" stroke-width="2" points="455.23,-44.32 461.8,-36.01 451.49,-38.41 455.23,-44.32"/>
</g>
<!-- 7&#45;&gt;10 -->
<g id="edge18" class="edge">
<title>7&#45;&gt;10</title>
<path fill="none" stroke="grey" stroke-width="2" d="M433.34,-215.88C449.44,-206.64 469.5,-195.13 486.79,-185.21"/>
<polygon fill="grey" stroke="grey" stroke-width="2" points="488.61,-188.2 495.54,-180.19 485.13,-182.13 488.61,-188.2"/>
</g>
<!-- 8&#45;&gt;0 -->
<g id="edge8" class="edge">
<title>8&#45;&gt;0</title>
<path fill="none" stroke="grey" stroke-width="2" d="M564.41,-215.84C584.17,-185.05 618.95,-119.25 591.5,-72 582.76,-56.96 567.97,-45.83 552.73,-37.76"/>
<polygon fill="grey" stroke="grey" stroke-width="2" points="554.27,-34.62 543.75,-33.36 551.19,-40.9 554.27,-34.62"/>
</g>
<!-- 8&#45;&gt;10 -->
<g id="edge19" class="edge">
<title>8&#45;&gt;10</title>
<path fill="none" stroke="grey" stroke-width="2" d="M545.83,-215.7C542.79,-207.81 539.12,-198.3 535.74,-189.55"/>
<polygon fill="grey" stroke="grey" stroke-width="2" points="538.96,-188.17 532.1,-180.1 532.43,-190.69 538.96,-188.17"/>
</g>
<!-- 9&#45;&gt;0 -->
<g id="edge9" class="edge">
<title>9&#45;&gt;0</title>
<path fill="none" stroke="grey" stroke-width="2" d="M685.27,-215.7C676.59,-183.51 653.93,-113.9 611.5,-72 595.26,-55.96 573.26,-44.15 552.98,-35.8"/>
<polygon fill="grey" stroke="grey" stroke-width="2" points="554.1,-32.48 543.51,-32.09 551.54,-39 554.1,-32.48"/>
</g>
<!-- 9&#45;&gt;10 -->
<g id="edge20" class="edge">
<title>9&#45;&gt;10</title>
<path fill="none" stroke="grey" stroke-width="2" d="M649.38,-215.88C626.86,-206.26 598.58,-194.19 574.73,-184.01"/>
<polygon fill="grey" stroke="grey" stroke-width="2" points="576.06,-180.77 565.49,-180.07 573.31,-187.21 576.06,-180.77"/>
</g>
<!-- 10&#45;&gt;0 -->
<g id="edge10" class="edge">
<title>10&#45;&gt;0</title>
<path fill="none" stroke="grey" stroke-width="2" d="M547.65,-143.87C557.91,-134.52 569.02,-122 574.5,-108 580.33,-93.1 581.9,-86.19 574.5,-72 568.03,-59.61 557.2,-49.52 545.71,-41.6"/>
<polygon fill="grey" stroke="grey" stroke-width="2" points="547.59,-38.65 537.28,-36.22 543.82,-44.55 547.59,-38.65"/>
</g>
<!-- 11 -->
<g id="node12" class="node">
<title>11</title>
<path fill="none" stroke="#d8ac56" stroke-width="2" d="M553.5,-108C553.5,-108 443.5,-108 443.5,-108 437.5,-108 431.5,-102 431.5,-96 431.5,-96 431.5,-84 431.5,-84 431.5,-78 437.5,-72 443.5,-72 443.5,-72 553.5,-72 553.5,-72 559.5,-72 565.5,-78 565.5,-84 565.5,-84 565.5,-96 565.5,-96 565.5,-102 559.5,-108 553.5,-108"/>
<text text-anchor="middle" x="498.5" y="-87.5" font-family="sans" font-size="10.00">interactive_heatmap_plot</text>
</g>
<!-- 10&#45;&gt;11 -->
<g id="edge23" class="edge">
<title>10&#45;&gt;11</title>
<path fill="none" stroke="grey" stroke-width="2" d="M518.83,-143.7C515.79,-135.81 512.12,-126.3 508.74,-117.55"/>
<polygon fill="grey" stroke="grey" stroke-width="2" points="511.96,-116.17 505.1,-108.1 505.43,-118.69 511.96,-116.17"/>
</g>
<!-- 11&#45;&gt;0 -->
<g id="edge11" class="edge">
<title>11&#45;&gt;0</title>
<path fill="none" stroke="grey" stroke-width="2" d="M498.5,-71.7C498.5,-63.98 498.5,-54.71 498.5,-46.11"/>
<polygon fill="grey" stroke="grey" stroke-width="2" points="502,-46.1 498.5,-36.1 495,-46.1 502,-46.1"/>
</g>
</g>
</svg>
