<?xml version="1.0" encoding="UTF-8" standalone="no"?>
<!DOCTYPE svg PUBLIC "-//W3C//DTD SVG 1.1//EN"
 "http://www.w3.org/Graphics/SVG/1.1/DTD/svg11.dtd">
<!-- Generated by graphviz version 2.40.1 (0)
 -->
<!-- Title: snakemake_dag Pages: 1 -->
<svg width="963pt" height="332pt"
 viewBox="0.00 0.00 963.19 332.00" xmlns="http://www.w3.org/2000/svg" xmlns:xlink="http://www.w3.org/1999/xlink">
<g id="graph0" class="graph" transform="scale(1 1) rotate(0) translate(4 328)">
<title>snakemake_dag</title>
<polygon fill="#ffffff" stroke="transparent" points="-4,4 -4,-328 959.1884,-328 959.1884,4 -4,4"/>
<!-- 0 -->
<g id="node1" class="node">
<title>0</title>
<path fill="none" stroke="#56d8b9" stroke-width="2" d="M509.5,-36C509.5,-36 437.5,-36 437.5,-36 431.5,-36 425.5,-30 425.5,-24 425.5,-24 425.5,-12 425.5,-12 425.5,-6 431.5,0 437.5,0 437.5,0 509.5,0 509.5,0 515.5,0 521.5,-6 521.5,-12 521.5,-12 521.5,-24 521.5,-24 521.5,-30 515.5,-36 509.5,-36"/>
<text text-anchor="middle" x="473.5" y="-15.5" font-family="sans" font-size="10.00" fill="#000000">make_summary</text>
</g>
<!-- 1 -->
<g id="node2" class="node">
<title>1</title>
<path fill="none" stroke="#56d0d8" stroke-width="2" d="M137.5,-180C137.5,-180 93.5,-180 93.5,-180 87.5,-180 81.5,-174 81.5,-168 81.5,-168 81.5,-156 81.5,-156 81.5,-150 87.5,-144 93.5,-144 93.5,-144 137.5,-144 137.5,-144 143.5,-144 149.5,-150 149.5,-156 149.5,-156 149.5,-168 149.5,-168 149.5,-174 143.5,-180 137.5,-180"/>
<text text-anchor="middle" x="115.5" y="-159.5" font-family="sans" font-size="10.00" fill="#000000">make_dag</text>
</g>
<!-- 1&#45;&gt;0 -->
<g id="edge1" class="edge">
<title>1&#45;&gt;0</title>
<path fill="none" stroke="#c0c0c0" stroke-width="2" d="M103.0665,-143.9098C91.0572,-123.9877 77.0455,-92.1177 94.5,-72 115.2128,-48.1269 314.3919,-29.9174 415.3878,-22.1354"/>
<polygon fill="#c0c0c0" stroke="#c0c0c0" stroke-width="2" points="415.7293,-25.6196 425.4348,-21.3707 415.198,-18.6398 415.7293,-25.6196"/>
</g>
<!-- 2 -->
<g id="node3" class="node">
<title>2</title>
<path fill="none" stroke="#68d856" stroke-width="2" d="M193,-108C193,-108 116,-108 116,-108 110,-108 104,-102 104,-96 104,-96 104,-84 104,-84 104,-78 110,-72 116,-72 116,-72 193,-72 193,-72 199,-72 205,-78 205,-84 205,-84 205,-96 205,-96 205,-102 199,-108 193,-108"/>
<text text-anchor="middle" x="154.5" y="-87.5" font-family="sans" font-size="10.00" fill="#000000">save_pinned_env</text>
</g>
<!-- 1&#45;&gt;2 -->
<g id="edge13" class="edge">
<title>1&#45;&gt;2</title>
<path fill="none" stroke="#c0c0c0" stroke-width="2" d="M125.3413,-143.8314C129.6957,-135.7925 134.9098,-126.1666 139.7169,-117.2918"/>
<polygon fill="#c0c0c0" stroke="#c0c0c0" stroke-width="2" points="142.8408,-118.8732 144.5261,-108.4133 136.6857,-115.5392 142.8408,-118.8732"/>
</g>
<!-- 2&#45;&gt;0 -->
<g id="edge2" class="edge">
<title>2&#45;&gt;0</title>
<path fill="none" stroke="#c0c0c0" stroke-width="2" d="M205.1643,-75.6501C209.9996,-74.3771 214.8365,-73.1403 219.5,-72 286.2152,-55.6866 363.4774,-39.6659 415.1074,-29.3666"/>
<polygon fill="#c0c0c0" stroke="#c0c0c0" stroke-width="2" points="415.9549,-32.7667 425.0809,-27.3847 414.5905,-25.901 415.9549,-32.7667"/>
</g>
<!-- 3 -->
<g id="node4" class="node">
<title>3</title>
<path fill="none" stroke="#d85656" stroke-width="2" d="M151,-252C151,-252 12,-252 12,-252 6,-252 0,-246 0,-240 0,-240 0,-228 0,-228 0,-222 6,-216 12,-216 12,-216 151,-216 151,-216 157,-216 163,-222 163,-228 163,-228 163,-240 163,-240 163,-246 157,-252 151,-252"/>
<text text-anchor="middle" x="81.5" y="-231.5" font-family="sans" font-size="10.00" fill="#000000">get_mut_bind_monomer_expr</text>
</g>
<!-- 3&#45;&gt;0 -->
<g id="edge3" class="edge">
<title>3&#45;&gt;0</title>
<path fill="none" stroke="#c0c0c0" stroke-width="2" d="M108.6691,-215.8579C123.6168,-205.651 142.3535,-192.4838 158.5,-180 217.1175,-134.6793 220.2014,-107.0153 285.5,-72 326.2965,-50.1235 376.9525,-36.2335 415.4,-28.0276"/>
<polygon fill="#c0c0c0" stroke="#c0c0c0" stroke-width="2" points="416.3137,-31.4128 425.399,-25.9622 414.8977,-24.5575 416.3137,-31.4128"/>
</g>
<!-- 10 -->
<g id="node11" class="node">
<title>10</title>
<path fill="none" stroke="#56a9d8" stroke-width="2" d="M583.5,-180C583.5,-180 513.5,-180 513.5,-180 507.5,-180 501.5,-174 501.5,-168 501.5,-168 501.5,-156 501.5,-156 501.5,-150 507.5,-144 513.5,-144 513.5,-144 583.5,-144 583.5,-144 589.5,-144 595.5,-150 595.5,-156 595.5,-156 595.5,-168 595.5,-168 595.5,-174 589.5,-180 583.5,-180"/>
<text text-anchor="middle" x="548.5" y="-159.5" font-family="sans" font-size="10.00" fill="#000000">collapse_scores</text>
</g>
<!-- 3&#45;&gt;10 -->
<g id="edge23" class="edge">
<title>3&#45;&gt;10</title>
<path fill="none" stroke="#c0c0c0" stroke-width="2" d="M163.315,-217.6057C166.4138,-217.0519 169.4837,-216.5145 172.5,-216 285.19,-196.7764 417.6679,-178.8271 491.4657,-169.2406"/>
<polygon fill="#c0c0c0" stroke="#c0c0c0" stroke-width="2" points="492.0134,-172.699 501.4813,-167.9442 491.1147,-165.7569 492.0134,-172.699"/>
</g>
<!-- 4 -->
<g id="node5" class="node">
<title>4</title>
<path fill="none" stroke="#56d892" stroke-width="2" d="M313.5,-252C313.5,-252 193.5,-252 193.5,-252 187.5,-252 181.5,-246 181.5,-240 181.5,-240 181.5,-228 181.5,-228 181.5,-222 187.5,-216 193.5,-216 193.5,-216 313.5,-216 313.5,-216 319.5,-216 325.5,-222 325.5,-228 325.5,-228 325.5,-240 325.5,-240 325.5,-246 319.5,-252 313.5,-252"/>
<text text-anchor="middle" x="253.5" y="-231.5" font-family="sans" font-size="10.00" fill="#000000">get_mut_bind_dimer_expr</text>
</g>
<!-- 4&#45;&gt;0 -->
<g id="edge4" class="edge">
<title>4&#45;&gt;0</title>
<path fill="none" stroke="#c0c0c0" stroke-width="2" d="M255.419,-215.9547C259.8896,-182.8242 273.9906,-112.0336 315.5,-72 342.4457,-46.0122 382.4127,-32.5021 415.4067,-25.4941"/>
<polygon fill="#c0c0c0" stroke="#c0c0c0" stroke-width="2" points="416.2674,-28.8918 425.4002,-23.5213 414.9116,-22.0244 416.2674,-28.8918"/>
</g>
<!-- 4&#45;&gt;10 -->
<g id="edge22" class="edge">
<title>4&#45;&gt;10</title>
<path fill="none" stroke="#c0c0c0" stroke-width="2" d="M325.6651,-216.3868C376.7836,-203.9104 444.4038,-187.4065 491.695,-175.8643"/>
<polygon fill="#c0c0c0" stroke="#c0c0c0" stroke-width="2" points="492.5797,-179.2512 501.4646,-173.4798 490.9199,-172.4508 492.5797,-179.2512"/>
</g>
<!-- 5 -->
<g id="node6" class="node">
<title>5</title>
<path fill="none" stroke="#567bd8" stroke-width="2" d="M756,-324C756,-324 691,-324 691,-324 685,-324 679,-318 679,-312 679,-312 679,-300 679,-300 679,-294 685,-288 691,-288 691,-288 756,-288 756,-288 762,-288 768,-294 768,-300 768,-300 768,-312 768,-312 768,-318 762,-324 756,-324"/>
<text text-anchor="middle" x="723.5" y="-303.5" font-family="sans" font-size="10.00" fill="#000000">count_variants</text>
</g>
<!-- 5&#45;&gt;0 -->
<g id="edge5" class="edge">
<title>5&#45;&gt;0</title>
<path fill="none" stroke="#c0c0c0" stroke-width="2" d="M768.2676,-301.7227C827.3555,-295.0454 926.4889,-279.9188 948.5,-252 958.406,-239.4353 956.0346,-230.1149 948.5,-216 894.3412,-114.5422 839.5427,-116.5174 733.5,-72 667.4083,-44.2543 585.6925,-30.2922 531.7097,-23.6053"/>
<polygon fill="#c0c0c0" stroke="#c0c0c0" stroke-width="2" points="531.974,-20.1121 521.6295,-22.4014 531.1438,-27.0627 531.974,-20.1121"/>
</g>
<!-- 6 -->
<g id="node7" class="node">
<title>6</title>
<path fill="none" stroke="#d8cb56" stroke-width="2" d="M927.5,-252C927.5,-252 817.5,-252 817.5,-252 811.5,-252 805.5,-246 805.5,-240 805.5,-240 805.5,-228 805.5,-228 805.5,-222 811.5,-216 817.5,-216 817.5,-216 927.5,-216 927.5,-216 933.5,-216 939.5,-222 939.5,-228 939.5,-228 939.5,-240 939.5,-240 939.5,-246 933.5,-252 927.5,-252"/>
<text text-anchor="middle" x="872.5" y="-231.5" font-family="sans" font-size="10.00" fill="#000000">fit_deer_ACE2_titrations</text>
</g>
<!-- 5&#45;&gt;6 -->
<g id="edge14" class="edge">
<title>5&#45;&gt;6</title>
<path fill="none" stroke="#c0c0c0" stroke-width="2" d="M761.099,-287.8314C780.8497,-278.2874 805.2297,-266.5065 826.1417,-256.4013"/>
<polygon fill="#c0c0c0" stroke="#c0c0c0" stroke-width="2" points="827.6903,-259.5403 835.1714,-252.038 824.6447,-253.2376 827.6903,-259.5403"/>
</g>
<!-- 7 -->
<g id="node8" class="node">
<title>7</title>
<path fill="none" stroke="#56d86b" stroke-width="2" d="M483.5,-252C483.5,-252 355.5,-252 355.5,-252 349.5,-252 343.5,-246 343.5,-240 343.5,-240 343.5,-228 343.5,-228 343.5,-222 349.5,-216 355.5,-216 355.5,-216 483.5,-216 483.5,-216 489.5,-216 495.5,-222 495.5,-228 495.5,-228 495.5,-240 495.5,-240 495.5,-246 489.5,-252 483.5,-252"/>
<text text-anchor="middle" x="419.5" y="-231.5" font-family="sans" font-size="10.00" fill="#000000">fit_hamster_ACE2_titrations</text>
</g>
<!-- 5&#45;&gt;7 -->
<g id="edge15" class="edge">
<title>5&#45;&gt;7</title>
<path fill="none" stroke="#c0c0c0" stroke-width="2" d="M678.9702,-295.4535C633.6191,-284.7124 562.1353,-267.782 505.6721,-254.4092"/>
<polygon fill="#c0c0c0" stroke="#c0c0c0" stroke-width="2" points="506.2105,-250.9399 495.673,-252.041 504.5972,-257.7515 506.2105,-250.9399"/>
</g>
<!-- 8 -->
<g id="node9" class="node">
<title>8</title>
<path fill="none" stroke="#b6d856" stroke-width="2" d="M629.5,-252C629.5,-252 525.5,-252 525.5,-252 519.5,-252 513.5,-246 513.5,-240 513.5,-240 513.5,-228 513.5,-228 513.5,-222 519.5,-216 525.5,-216 525.5,-216 629.5,-216 629.5,-216 635.5,-216 641.5,-222 641.5,-228 641.5,-228 641.5,-240 641.5,-240 641.5,-246 635.5,-252 629.5,-252"/>
<text text-anchor="middle" x="577.5" y="-231.5" font-family="sans" font-size="10.00" fill="#000000">fit_bat_ACE2_titrations</text>
</g>
<!-- 5&#45;&gt;8 -->
<g id="edge16" class="edge">
<title>5&#45;&gt;8</title>
<path fill="none" stroke="#c0c0c0" stroke-width="2" d="M686.658,-287.8314C667.3918,-278.3302 643.6301,-266.6121 623.2008,-256.5374"/>
<polygon fill="#c0c0c0" stroke="#c0c0c0" stroke-width="2" points="624.5938,-253.3219 614.077,-252.038 621.4977,-259.6 624.5938,-253.3219"/>
</g>
<!-- 9 -->
<g id="node10" class="node">
<title>9</title>
<path fill="none" stroke="#d87d56" stroke-width="2" d="M775,-252C775,-252 672,-252 672,-252 666,-252 660,-246 660,-240 660,-240 660,-228 660,-228 660,-222 666,-216 672,-216 672,-216 775,-216 775,-216 781,-216 787,-222 787,-228 787,-228 787,-240 787,-240 787,-246 781,-252 775,-252"/>
<text text-anchor="middle" x="723.5" y="-231.5" font-family="sans" font-size="10.00" fill="#000000">fit_cat_ACE2_titrations</text>
</g>
<!-- 5&#45;&gt;9 -->
<g id="edge17" class="edge">
<title>5&#45;&gt;9</title>
<path fill="none" stroke="#c0c0c0" stroke-width="2" d="M723.5,-287.8314C723.5,-280.131 723.5,-270.9743 723.5,-262.4166"/>
<polygon fill="#c0c0c0" stroke="#c0c0c0" stroke-width="2" points="727.0001,-262.4132 723.5,-252.4133 720.0001,-262.4133 727.0001,-262.4132"/>
</g>
<!-- 6&#45;&gt;0 -->
<g id="edge6" class="edge">
<title>6&#45;&gt;0</title>
<path fill="none" stroke="#c0c0c0" stroke-width="2" d="M857.8579,-215.764C829.7252,-181.9956 764.5754,-109.7412 693.5,-72 642.6392,-44.9928 577.9863,-31.2141 531.9582,-24.3667"/>
<polygon fill="#c0c0c0" stroke="#c0c0c0" stroke-width="2" points="532.2416,-20.8718 521.8485,-22.9293 531.2562,-27.8021 532.2416,-20.8718"/>
</g>
<!-- 6&#45;&gt;10 -->
<g id="edge18" class="edge">
<title>6&#45;&gt;10</title>
<path fill="none" stroke="#c0c0c0" stroke-width="2" d="M805.3214,-218.2359C802.0015,-217.4757 798.7137,-216.7269 795.5,-216 730.6128,-201.3236 655.9832,-185.0981 605.8894,-174.3018"/>
<polygon fill="#c0c0c0" stroke="#c0c0c0" stroke-width="2" points="606.4093,-170.8335 595.8965,-172.1499 604.9356,-177.6767 606.4093,-170.8335"/>
</g>
<!-- 7&#45;&gt;0 -->
<g id="edge7" class="edge">
<title>7&#45;&gt;0</title>
<path fill="none" stroke="#c0c0c0" stroke-width="2" d="M395.7303,-215.835C358.5037,-185.1471 294.0839,-121.5423 328.5,-72 339.0066,-56.8757 379.8521,-42.4621 415.5246,-32.3364"/>
<polygon fill="#c0c0c0" stroke="#c0c0c0" stroke-width="2" points="416.7158,-35.6384 425.4194,-29.5971 414.8481,-28.8921 416.7158,-35.6384"/>
</g>
<!-- 7&#45;&gt;10 -->
<g id="edge19" class="edge">
<title>7&#45;&gt;10</title>
<path fill="none" stroke="#c0c0c0" stroke-width="2" d="M452.0521,-215.8314C468.7048,-206.5368 489.1585,-195.1208 506.9385,-185.1971"/>
<polygon fill="#c0c0c0" stroke="#c0c0c0" stroke-width="2" points="508.9321,-188.0927 515.9583,-180.1628 505.5205,-181.9803 508.9321,-188.0927"/>
</g>
<!-- 8&#45;&gt;0 -->
<g id="edge8" class="edge">
<title>8&#45;&gt;0</title>
<path fill="none" stroke="#c0c0c0" stroke-width="2" d="M596.7262,-215.5818C627.3769,-183.9638 680.55,-118.2985 646.5,-72 632.5922,-53.0892 576.1226,-37.8776 531.4323,-28.4777"/>
<polygon fill="#c0c0c0" stroke="#c0c0c0" stroke-width="2" points="532.0172,-25.0249 521.5181,-26.4456 530.6116,-31.8823 532.0172,-25.0249"/>
</g>
<!-- 8&#45;&gt;10 -->
<g id="edge20" class="edge">
<title>8&#45;&gt;10</title>
<path fill="none" stroke="#c0c0c0" stroke-width="2" d="M570.1821,-215.8314C567.0124,-207.9617 563.23,-198.5712 559.7187,-189.8533"/>
<polygon fill="#c0c0c0" stroke="#c0c0c0" stroke-width="2" points="562.8992,-188.3815 555.9165,-180.4133 556.4061,-190.9968 562.8992,-188.3815"/>
</g>
<!-- 9&#45;&gt;0 -->
<g id="edge9" class="edge">
<title>9&#45;&gt;0</title>
<path fill="none" stroke="#c0c0c0" stroke-width="2" d="M722.4045,-215.7634C719.3952,-182.3181 708.1734,-111.0292 666.5,-72 646.9586,-53.6985 581.1629,-37.886 531.7878,-28.1839"/>
<polygon fill="#c0c0c0" stroke="#c0c0c0" stroke-width="2" points="532.3188,-24.7219 521.8372,-26.2669 530.9945,-31.5955 532.3188,-24.7219"/>
</g>
<!-- 9&#45;&gt;10 -->
<g id="edge21" class="edge">
<title>9&#45;&gt;10</title>
<path fill="none" stroke="#c0c0c0" stroke-width="2" d="M679.3401,-215.8314C655.7268,-206.1162 626.4798,-194.0831 601.63,-183.8592"/>
<polygon fill="#c0c0c0" stroke="#c0c0c0" stroke-width="2" points="602.9219,-180.6061 592.3423,-180.038 600.2585,-187.0797 602.9219,-180.6061"/>
</g>
<!-- 10&#45;&gt;0 -->
<g id="edge10" class="edge">
<title>10&#45;&gt;0</title>
<path fill="none" stroke="#c0c0c0" stroke-width="2" d="M590.968,-143.7705C605.5844,-135.1861 620.3211,-123.3886 628.5,-108 636.0092,-93.8716 637.7676,-85.0427 628.5,-72 616.7836,-55.511 570.3931,-40.7032 531.3899,-30.7829"/>
<polygon fill="#c0c0c0" stroke="#c0c0c0" stroke-width="2" points="532.2072,-27.3797 521.6586,-28.3681 530.5212,-34.1736 532.2072,-27.3797"/>
</g>
<!-- 11 -->
<g id="node12" class="node">
<title>11</title>
<path fill="none" stroke="#8fd856" stroke-width="2" d="M447.5,-108C447.5,-108 349.5,-108 349.5,-108 343.5,-108 337.5,-102 337.5,-96 337.5,-96 337.5,-84 337.5,-84 337.5,-78 343.5,-72 349.5,-72 349.5,-72 447.5,-72 447.5,-72 453.5,-72 459.5,-78 459.5,-84 459.5,-84 459.5,-96 459.5,-96 459.5,-102 453.5,-108 447.5,-108"/>
<text text-anchor="middle" x="398.5" y="-87.5" font-family="sans" font-size="10.00" fill="#000000">ACE2_epistatic_shifts</text>
</g>
<!-- 10&#45;&gt;11 -->
<g id="edge24" class="edge">
<title>10&#45;&gt;11</title>
<path fill="none" stroke="#c0c0c0" stroke-width="2" d="M510.6487,-143.8314C490.7654,-134.2874 466.2218,-122.5065 445.1695,-112.4013"/>
<polygon fill="#c0c0c0" stroke="#c0c0c0" stroke-width="2" points="446.609,-109.21 436.0791,-108.038 443.5798,-115.5207 446.609,-109.21"/>
</g>
<!-- 12 -->
<g id="node13" class="node">
<title>12</title>
<path fill="none" stroke="#d8a456" stroke-width="2" d="M607.5,-108C607.5,-108 489.5,-108 489.5,-108 483.5,-108 477.5,-102 477.5,-96 477.5,-96 477.5,-84 477.5,-84 477.5,-78 483.5,-72 489.5,-72 489.5,-72 607.5,-72 607.5,-72 613.5,-72 619.5,-78 619.5,-84 619.5,-84 619.5,-96 619.5,-96 619.5,-102 613.5,-108 607.5,-108"/>
<text text-anchor="middle" x="548.5" y="-87.5" font-family="sans" font-size="10.00" fill="#000000">interactive_heatmap_plot</text>
</g>
<!-- 10&#45;&gt;12 -->
<g id="edge25" class="edge">
<title>10&#45;&gt;12</title>
<path fill="none" stroke="#c0c0c0" stroke-width="2" d="M548.5,-143.8314C548.5,-136.131 548.5,-126.9743 548.5,-118.4166"/>
<polygon fill="#c0c0c0" stroke="#c0c0c0" stroke-width="2" points="552.0001,-118.4132 548.5,-108.4133 545.0001,-118.4133 552.0001,-118.4132"/>
</g>
<!-- 11&#45;&gt;0 -->
<g id="edge11" class="edge">
<title>11&#45;&gt;0</title>
<path fill="none" stroke="#c0c0c0" stroke-width="2" d="M417.4257,-71.8314C426.4857,-63.1337 437.4809,-52.5783 447.3265,-43.1265"/>
<polygon fill="#c0c0c0" stroke="#c0c0c0" stroke-width="2" points="449.7904,-45.613 454.5804,-36.1628 444.9426,-40.5633 449.7904,-45.613"/>
</g>
<!-- 12&#45;&gt;0 -->
<g id="edge12" class="edge">
<title>12&#45;&gt;0</title>
<path fill="none" stroke="#c0c0c0" stroke-width="2" d="M529.5743,-71.8314C520.5143,-63.1337 509.5191,-52.5783 499.6735,-43.1265"/>
<polygon fill="#c0c0c0" stroke="#c0c0c0" stroke-width="2" points="502.0574,-40.5633 492.4196,-36.1628 497.2096,-45.613 502.0574,-40.5633"/>
</g>
</g>
</svg>
