<?xml version="1.0" encoding="UTF-8" standalone="no"?>
<!DOCTYPE svg PUBLIC "-//W3C//DTD SVG 1.1//EN"
 "http://www.w3.org/Graphics/SVG/1.1/DTD/svg11.dtd">
<!-- Generated by graphviz version 2.40.1 (0)
 -->
<!-- Title: snakemake_dag Pages: 1 -->
<svg width="963pt" height="332pt"
 viewBox="0.00 0.00 963.30 332.00" xmlns="http://www.w3.org/2000/svg" xmlns:xlink="http://www.w3.org/1999/xlink">
<g id="graph0" class="graph" transform="scale(1 1) rotate(0) translate(4 328)">
<title>snakemake_dag</title>
<polygon fill="#ffffff" stroke="transparent" points="-4,4 -4,-328 959.2974,-328 959.2974,4 -4,4"/>
<!-- 0 -->
<g id="node1" class="node">
<title>0</title>
<path fill="none" stroke="#d88556" stroke-width="2" d="M554.5,-36C554.5,-36 482.5,-36 482.5,-36 476.5,-36 470.5,-30 470.5,-24 470.5,-24 470.5,-12 470.5,-12 470.5,-6 476.5,0 482.5,0 482.5,0 554.5,0 554.5,0 560.5,0 566.5,-6 566.5,-12 566.5,-12 566.5,-24 566.5,-24 566.5,-30 560.5,-36 554.5,-36"/>
<text text-anchor="middle" x="518.5" y="-15.5" font-family="sans" font-size="10.00" fill="#000000">make_summary</text>
</g>
<!-- 1 -->
<g id="node2" class="node">
<title>1</title>
<path fill="none" stroke="#d6d856" stroke-width="2" d="M276.5,-180C276.5,-180 232.5,-180 232.5,-180 226.5,-180 220.5,-174 220.5,-168 220.5,-168 220.5,-156 220.5,-156 220.5,-150 226.5,-144 232.5,-144 232.5,-144 276.5,-144 276.5,-144 282.5,-144 288.5,-150 288.5,-156 288.5,-156 288.5,-168 288.5,-168 288.5,-174 282.5,-180 276.5,-180"/>
<text text-anchor="middle" x="254.5" y="-159.5" font-family="sans" font-size="10.00" fill="#000000">make_dag</text>
</g>
<!-- 1&#45;&gt;0 -->
<g id="edge1" class="edge">
<title>1&#45;&gt;0</title>
<path fill="none" stroke="#c0c0c0" stroke-width="2" d="M265.0708,-143.6504C277.7922,-123.1868 301.0359,-90.5342 329.5,-72 368.961,-46.3052 420.7936,-32.6212 460.1958,-25.4652"/>
<polygon fill="#c0c0c0" stroke="#c0c0c0" stroke-width="2" points="460.9275,-28.8908 470.1867,-23.7412 459.7371,-21.9927 460.9275,-28.8908"/>
</g>
<!-- 2 -->
<g id="node3" class="node">
<title>2</title>
<path fill="none" stroke="#d8ac56" stroke-width="2" d="M265,-108C265,-108 188,-108 188,-108 182,-108 176,-102 176,-96 176,-96 176,-84 176,-84 176,-78 182,-72 188,-72 188,-72 265,-72 265,-72 271,-72 277,-78 277,-84 277,-84 277,-96 277,-96 277,-102 271,-108 265,-108"/>
<text text-anchor="middle" x="226.5" y="-87.5" font-family="sans" font-size="10.00" fill="#000000">save_pinned_env</text>
</g>
<!-- 1&#45;&gt;2 -->
<g id="edge12" class="edge">
<title>1&#45;&gt;2</title>
<path fill="none" stroke="#c0c0c0" stroke-width="2" d="M247.4344,-143.8314C244.374,-135.9617 240.7221,-126.5712 237.3318,-117.8533"/>
<polygon fill="#c0c0c0" stroke="#c0c0c0" stroke-width="2" points="240.5473,-116.4647 233.6607,-108.4133 234.0232,-119.0019 240.5473,-116.4647"/>
</g>
<!-- 2&#45;&gt;0 -->
<g id="edge2" class="edge">
<title>2&#45;&gt;0</title>
<path fill="none" stroke="#c0c0c0" stroke-width="2" d="M277.1941,-75.7687C282.0232,-74.4712 286.8506,-73.1964 291.5,-72 348.7003,-57.2817 414.3779,-41.8125 460.3223,-31.2219"/>
<polygon fill="#c0c0c0" stroke="#c0c0c0" stroke-width="2" points="461.1449,-34.6242 470.1059,-28.9717 459.5758,-27.8023 461.1449,-34.6242"/>
</g>
<!-- 3 -->
<g id="node4" class="node">
<title>3</title>
<path fill="none" stroke="#56a9d8" stroke-width="2" d="M151,-252C151,-252 12,-252 12,-252 6,-252 0,-246 0,-240 0,-240 0,-228 0,-228 0,-222 6,-216 12,-216 12,-216 151,-216 151,-216 157,-216 163,-222 163,-228 163,-228 163,-240 163,-240 163,-246 157,-252 151,-252"/>
<text text-anchor="middle" x="81.5" y="-231.5" font-family="sans" font-size="10.00" fill="#000000">get_mut_bind_monomer_expr</text>
</g>
<!-- 3&#45;&gt;0 -->
<g id="edge3" class="edge">
<title>3&#45;&gt;0</title>
<path fill="none" stroke="#c0c0c0" stroke-width="2" d="M163.1176,-216.0602C219.2215,-203.3085 285.6574,-187.2146 297.5,-180 352.0942,-146.7406 340.7367,-109.5136 392.5,-72 413.0715,-57.0915 438.3959,-45.2268 460.9323,-36.4598"/>
<polygon fill="#c0c0c0" stroke="#c0c0c0" stroke-width="2" points="462.275,-39.6941 470.3981,-32.8923 459.8063,-33.1439 462.275,-39.6941"/>
</g>
<!-- 10 -->
<g id="node11" class="node">
<title>10</title>
<path fill="none" stroke="#56d882" stroke-width="2" d="M582.5,-180C582.5,-180 512.5,-180 512.5,-180 506.5,-180 500.5,-174 500.5,-168 500.5,-168 500.5,-156 500.5,-156 500.5,-150 506.5,-144 512.5,-144 512.5,-144 582.5,-144 582.5,-144 588.5,-144 594.5,-150 594.5,-156 594.5,-156 594.5,-168 594.5,-168 594.5,-174 588.5,-180 582.5,-180"/>
<text text-anchor="middle" x="547.5" y="-159.5" font-family="sans" font-size="10.00" fill="#000000">collapse_scores</text>
</g>
<!-- 3&#45;&gt;10 -->
<g id="edge22" class="edge">
<title>3&#45;&gt;10</title>
<path fill="none" stroke="#c0c0c0" stroke-width="2" d="M163.3152,-217.6072C166.414,-217.0529 169.4838,-216.5151 172.5,-216 284.7379,-196.8319 416.6535,-178.8953 490.3137,-169.2894"/>
<polygon fill="#c0c0c0" stroke="#c0c0c0" stroke-width="2" points="490.8472,-172.7496 500.3128,-167.99 489.9451,-165.8079 490.8472,-172.7496"/>
</g>
<!-- 4 -->
<g id="node5" class="node">
<title>4</title>
<path fill="none" stroke="#80d856" stroke-width="2" d="M313.5,-252C313.5,-252 193.5,-252 193.5,-252 187.5,-252 181.5,-246 181.5,-240 181.5,-240 181.5,-228 181.5,-228 181.5,-222 187.5,-216 193.5,-216 193.5,-216 313.5,-216 313.5,-216 319.5,-216 325.5,-222 325.5,-228 325.5,-228 325.5,-240 325.5,-240 325.5,-246 319.5,-252 313.5,-252"/>
<text text-anchor="middle" x="253.5" y="-231.5" font-family="sans" font-size="10.00" fill="#000000">get_mut_bind_dimer_expr</text>
</g>
<!-- 4&#45;&gt;0 -->
<g id="edge4" class="edge">
<title>4&#45;&gt;0</title>
<path fill="none" stroke="#c0c0c0" stroke-width="2" d="M301.6319,-215.914C320.5901,-207.128 341.5863,-195.15 357.5,-180 397.7477,-141.6839 380.7289,-110.8105 420.5,-72 433.2843,-59.5245 449.5284,-49.0442 465.0974,-40.7353"/>
<polygon fill="#c0c0c0" stroke="#c0c0c0" stroke-width="2" points="466.8505,-43.7698 474.1549,-36.0955 463.659,-37.5397 466.8505,-43.7698"/>
</g>
<!-- 4&#45;&gt;10 -->
<g id="edge21" class="edge">
<title>4&#45;&gt;10</title>
<path fill="none" stroke="#c0c0c0" stroke-width="2" d="M325.797,-216.2946C376.4845,-203.8814 443.311,-187.5157 490.2966,-176.009"/>
<polygon fill="#c0c0c0" stroke="#c0c0c0" stroke-width="2" points="491.4242,-179.3364 500.3046,-173.5581 489.7591,-172.5373 491.4242,-179.3364"/>
</g>
<!-- 5 -->
<g id="node6" class="node">
<title>5</title>
<path fill="none" stroke="#5682d8" stroke-width="2" d="M756,-324C756,-324 691,-324 691,-324 685,-324 679,-318 679,-312 679,-312 679,-300 679,-300 679,-294 685,-288 691,-288 691,-288 756,-288 756,-288 762,-288 768,-294 768,-300 768,-300 768,-312 768,-312 768,-318 762,-324 756,-324"/>
<text text-anchor="middle" x="723.5" y="-303.5" font-family="sans" font-size="10.00" fill="#000000">count_variants</text>
</g>
<!-- 5&#45;&gt;0 -->
<g id="edge5" class="edge">
<title>5&#45;&gt;0</title>
<path fill="none" stroke="#c0c0c0" stroke-width="2" d="M768.2676,-301.7227C827.3555,-295.0454 926.4889,-279.9188 948.5,-252 958.406,-239.4353 956.3832,-229.9232 948.5,-216 872.2368,-81.3047 675.4558,-37.6321 576.7588,-23.9555"/>
<polygon fill="#c0c0c0" stroke="#c0c0c0" stroke-width="2" points="577.0325,-20.4612 566.6586,-22.6135 576.1105,-27.4002 577.0325,-20.4612"/>
</g>
<!-- 6 -->
<g id="node7" class="node">
<title>6</title>
<path fill="none" stroke="#d85656" stroke-width="2" d="M927.5,-252C927.5,-252 817.5,-252 817.5,-252 811.5,-252 805.5,-246 805.5,-240 805.5,-240 805.5,-228 805.5,-228 805.5,-222 811.5,-216 817.5,-216 817.5,-216 927.5,-216 927.5,-216 933.5,-216 939.5,-222 939.5,-228 939.5,-228 939.5,-240 939.5,-240 939.5,-246 933.5,-252 927.5,-252"/>
<text text-anchor="middle" x="872.5" y="-231.5" font-family="sans" font-size="10.00" fill="#000000">fit_deer_ACE2_titrations</text>
</g>
<!-- 5&#45;&gt;6 -->
<g id="edge13" class="edge">
<title>5&#45;&gt;6</title>
<path fill="none" stroke="#c0c0c0" stroke-width="2" d="M761.099,-287.8314C780.8497,-278.2874 805.2297,-266.5065 826.1417,-256.4013"/>
<polygon fill="#c0c0c0" stroke="#c0c0c0" stroke-width="2" points="827.6903,-259.5403 835.1714,-252.038 824.6447,-253.2376 827.6903,-259.5403"/>
</g>
<!-- 7 -->
<g id="node8" class="node">
<title>7</title>
<path fill="none" stroke="#afd856" stroke-width="2" d="M483.5,-252C483.5,-252 355.5,-252 355.5,-252 349.5,-252 343.5,-246 343.5,-240 343.5,-240 343.5,-228 343.5,-228 343.5,-222 349.5,-216 355.5,-216 355.5,-216 483.5,-216 483.5,-216 489.5,-216 495.5,-222 495.5,-228 495.5,-228 495.5,-240 495.5,-240 495.5,-246 489.5,-252 483.5,-252"/>
<text text-anchor="middle" x="419.5" y="-231.5" font-family="sans" font-size="10.00" fill="#000000">fit_hamster_ACE2_titrations</text>
</g>
<!-- 5&#45;&gt;7 -->
<g id="edge14" class="edge">
<title>5&#45;&gt;7</title>
<path fill="none" stroke="#c0c0c0" stroke-width="2" d="M678.9702,-295.4535C633.6191,-284.7124 562.1353,-267.782 505.6721,-254.4092"/>
<polygon fill="#c0c0c0" stroke="#c0c0c0" stroke-width="2" points="506.2105,-250.9399 495.673,-252.041 504.5972,-257.7515 506.2105,-250.9399"/>
</g>
<!-- 8 -->
<g id="node9" class="node">
<title>8</title>
<path fill="none" stroke="#56d8a9" stroke-width="2" d="M629.5,-252C629.5,-252 525.5,-252 525.5,-252 519.5,-252 513.5,-246 513.5,-240 513.5,-240 513.5,-228 513.5,-228 513.5,-222 519.5,-216 525.5,-216 525.5,-216 629.5,-216 629.5,-216 635.5,-216 641.5,-222 641.5,-228 641.5,-228 641.5,-240 641.5,-240 641.5,-246 635.5,-252 629.5,-252"/>
<text text-anchor="middle" x="577.5" y="-231.5" font-family="sans" font-size="10.00" fill="#000000">fit_bat_ACE2_titrations</text>
</g>
<!-- 5&#45;&gt;8 -->
<g id="edge15" class="edge">
<title>5&#45;&gt;8</title>
<path fill="none" stroke="#c0c0c0" stroke-width="2" d="M686.658,-287.8314C667.3918,-278.3302 643.6301,-266.6121 623.2008,-256.5374"/>
<polygon fill="#c0c0c0" stroke="#c0c0c0" stroke-width="2" points="624.5938,-253.3219 614.077,-252.038 621.4977,-259.6 624.5938,-253.3219"/>
</g>
<!-- 9 -->
<g id="node10" class="node">
<title>9</title>
<path fill="none" stroke="#59d856" stroke-width="2" d="M775,-252C775,-252 672,-252 672,-252 666,-252 660,-246 660,-240 660,-240 660,-228 660,-228 660,-222 666,-216 672,-216 672,-216 775,-216 775,-216 781,-216 787,-222 787,-228 787,-228 787,-240 787,-240 787,-246 781,-252 775,-252"/>
<text text-anchor="middle" x="723.5" y="-231.5" font-family="sans" font-size="10.00" fill="#000000">fit_cat_ACE2_titrations</text>
</g>
<!-- 5&#45;&gt;9 -->
<g id="edge16" class="edge">
<title>5&#45;&gt;9</title>
<path fill="none" stroke="#c0c0c0" stroke-width="2" d="M723.5,-287.8314C723.5,-280.131 723.5,-270.9743 723.5,-262.4166"/>
<polygon fill="#c0c0c0" stroke="#c0c0c0" stroke-width="2" points="727.0001,-262.4132 723.5,-252.4133 720.0001,-262.4133 727.0001,-262.4132"/>
</g>
<!-- 6&#45;&gt;0 -->
<g id="edge6" class="edge">
<title>6&#45;&gt;0</title>
<path fill="none" stroke="#c0c0c0" stroke-width="2" d="M853.6979,-215.9169C818.9923,-183.3477 741.454,-114.2908 665.5,-72 637.5576,-56.4418 604.257,-43.7801 576.422,-34.6379"/>
<polygon fill="#c0c0c0" stroke="#c0c0c0" stroke-width="2" points="577.4134,-31.2803 566.8221,-31.552 575.2712,-37.9445 577.4134,-31.2803"/>
</g>
<!-- 6&#45;&gt;10 -->
<g id="edge17" class="edge">
<title>6&#45;&gt;10</title>
<path fill="none" stroke="#c0c0c0" stroke-width="2" d="M805.3221,-218.2325C802.0021,-217.4732 798.714,-216.7255 795.5,-216 730.1548,-201.2489 654.9604,-184.9741 604.6596,-174.1874"/>
<polygon fill="#c0c0c0" stroke="#c0c0c0" stroke-width="2" points="605.1405,-170.7111 594.6292,-172.0384 603.674,-177.5558 605.1405,-170.7111"/>
</g>
<!-- 7&#45;&gt;0 -->
<g id="edge7" class="edge">
<title>7&#45;&gt;0</title>
<path fill="none" stroke="#c0c0c0" stroke-width="2" d="M417.0037,-215.9127C413.5751,-184.2281 410.6671,-117.7142 438.5,-72 446.0031,-59.6765 457.5088,-49.5341 469.4758,-41.4997"/>
<polygon fill="#c0c0c0" stroke="#c0c0c0" stroke-width="2" points="471.6047,-44.2962 478.2206,-36.021 467.8882,-38.3643 471.6047,-44.2962"/>
</g>
<!-- 7&#45;&gt;10 -->
<g id="edge18" class="edge">
<title>7&#45;&gt;10</title>
<path fill="none" stroke="#c0c0c0" stroke-width="2" d="M451.7998,-215.8314C468.3234,-206.5368 488.6186,-195.1208 506.2607,-185.1971"/>
<polygon fill="#c0c0c0" stroke="#c0c0c0" stroke-width="2" points="508.2107,-188.116 515.2105,-180.1628 504.7788,-182.015 508.2107,-188.116"/>
</g>
<!-- 8&#45;&gt;0 -->
<g id="edge8" class="edge">
<title>8&#45;&gt;0</title>
<path fill="none" stroke="#c0c0c0" stroke-width="2" d="M589.9446,-215.6922C609.6273,-184.241 643.0217,-118.8204 615.5,-72 606.5189,-56.7211 591.4748,-45.4513 575.8821,-37.2818"/>
<polygon fill="#c0c0c0" stroke="#c0c0c0" stroke-width="2" points="577.205,-34.0337 566.6796,-32.8231 574.1528,-40.3332 577.205,-34.0337"/>
</g>
<!-- 8&#45;&gt;10 -->
<g id="edge19" class="edge">
<title>8&#45;&gt;10</title>
<path fill="none" stroke="#c0c0c0" stroke-width="2" d="M569.9297,-215.8314C566.6507,-207.9617 562.738,-198.5712 559.1055,-189.8533"/>
<polygon fill="#c0c0c0" stroke="#c0c0c0" stroke-width="2" points="562.2492,-188.2979 555.1722,-180.4133 555.7876,-190.9902 562.2492,-188.2979"/>
</g>
<!-- 9&#45;&gt;0 -->
<g id="edge9" class="edge">
<title>9&#45;&gt;0</title>
<path fill="none" stroke="#c0c0c0" stroke-width="2" d="M717.9042,-215.7981C706.9994,-183.0382 679.9967,-113.6859 635.5,-72 618.7983,-56.3534 596.7618,-44.5887 576.321,-36.1021"/>
<polygon fill="#c0c0c0" stroke="#c0c0c0" stroke-width="2" points="577.3431,-32.7424 566.7569,-32.3142 574.7655,-39.2506 577.3431,-32.7424"/>
</g>
<!-- 9&#45;&gt;10 -->
<g id="edge20" class="edge">
<title>9&#45;&gt;10</title>
<path fill="none" stroke="#c0c0c0" stroke-width="2" d="M679.0878,-215.8314C655.3396,-206.1162 625.9254,-194.0831 600.9336,-183.8592"/>
<polygon fill="#c0c0c0" stroke="#c0c0c0" stroke-width="2" points="602.1736,-180.585 591.5929,-180.038 599.5231,-187.0638 602.1736,-180.585"/>
</g>
<!-- 10&#45;&gt;0 -->
<g id="edge10" class="edge">
<title>10&#45;&gt;0</title>
<path fill="none" stroke="#c0c0c0" stroke-width="2" d="M571.3491,-143.928C581.7942,-134.5042 592.926,-122.02 598.5,-108 604.4112,-93.132 606.0092,-86.1284 598.5,-72 591.9185,-59.617 581.0907,-49.5593 569.4963,-41.63"/>
<polygon fill="#c0c0c0" stroke="#c0c0c0" stroke-width="2" points="571.289,-38.6225 560.968,-36.2295 567.544,-44.5365 571.289,-38.6225"/>
</g>
<!-- 11 -->
<g id="node12" class="node">
<title>11</title>
<path fill="none" stroke="#56d8d8" stroke-width="2" d="M577.5,-108C577.5,-108 459.5,-108 459.5,-108 453.5,-108 447.5,-102 447.5,-96 447.5,-96 447.5,-84 447.5,-84 447.5,-78 453.5,-72 459.5,-72 459.5,-72 577.5,-72 577.5,-72 583.5,-72 589.5,-78 589.5,-84 589.5,-84 589.5,-96 589.5,-96 589.5,-102 583.5,-108 577.5,-108"/>
<text text-anchor="middle" x="518.5" y="-87.5" font-family="sans" font-size="10.00" fill="#000000">interactive_heatmap_plot</text>
</g>
<!-- 10&#45;&gt;11 -->
<g id="edge23" class="edge">
<title>10&#45;&gt;11</title>
<path fill="none" stroke="#c0c0c0" stroke-width="2" d="M540.1821,-143.8314C537.0124,-135.9617 533.23,-126.5712 529.7187,-117.8533"/>
<polygon fill="#c0c0c0" stroke="#c0c0c0" stroke-width="2" points="532.8992,-116.3815 525.9165,-108.4133 526.4061,-118.9968 532.8992,-116.3815"/>
</g>
<!-- 11&#45;&gt;0 -->
<g id="edge11" class="edge">
<title>11&#45;&gt;0</title>
<path fill="none" stroke="#c0c0c0" stroke-width="2" d="M518.5,-71.8314C518.5,-64.131 518.5,-54.9743 518.5,-46.4166"/>
<polygon fill="#c0c0c0" stroke="#c0c0c0" stroke-width="2" points="522.0001,-46.4132 518.5,-36.4133 515.0001,-46.4133 522.0001,-46.4132"/>
</g>
</g>
</svg>
